<mxfile host="Electron" modified="2024-07-29T19:13:57.778Z" agent="Mozilla/5.0 (X11; Linux x86_64) AppleWebKit/537.36 (KHTML, like Gecko) draw.io/24.4.0 Chrome/120.0.6099.109 Electron/28.1.0 Safari/537.36" etag="D1YMWqN_I7FXyjMntPpL" version="24.4.0" type="device">
  <diagram name="Page-1" id="eaDhHPybFIIkCzZZfk7e">
    <mxGraphModel dx="880" dy="544" grid="0" gridSize="10" guides="1" tooltips="1" connect="1" arrows="1" fold="1" page="1" pageScale="1" pageWidth="850" pageHeight="1100" math="0" shadow="0">
      <root>
        <mxCell id="0" />
        <mxCell id="1" parent="0" />
        <mxCell id="zzOvyQntcQQUwidW1x4i-1" value="&lt;font style=&quot;font-size: 26px;&quot;&gt;multiple&lt;/font&gt;&lt;div&gt;&lt;font style=&quot;font-size: 26px;&quot;&gt;conditional statements&lt;/font&gt;&lt;/div&gt;" style="rounded=1;whiteSpace=wrap;html=1;fillColor=#0050ef;fontColor=#ffffff;strokeColor=#001DBC;" vertex="1" parent="1">
          <mxGeometry x="85" y="354" width="147" height="102" as="geometry" />
        </mxCell>
        <mxCell id="zzOvyQntcQQUwidW1x4i-7" style="edgeStyle=orthogonalEdgeStyle;rounded=0;orthogonalLoop=1;jettySize=auto;html=1;exitX=0;exitY=1;exitDx=0;exitDy=0;entryX=1;entryY=0;entryDx=0;entryDy=0;" edge="1" parent="1" source="zzOvyQntcQQUwidW1x4i-2" target="zzOvyQntcQQUwidW1x4i-4">
          <mxGeometry relative="1" as="geometry" />
        </mxCell>
        <mxCell id="zzOvyQntcQQUwidW1x4i-14" style="edgeStyle=orthogonalEdgeStyle;rounded=0;orthogonalLoop=1;jettySize=auto;html=1;exitX=0.5;exitY=1;exitDx=0;exitDy=0;" edge="1" parent="1" source="zzOvyQntcQQUwidW1x4i-2" target="zzOvyQntcQQUwidW1x4i-5">
          <mxGeometry relative="1" as="geometry" />
        </mxCell>
        <mxCell id="zzOvyQntcQQUwidW1x4i-20" style="edgeStyle=orthogonalEdgeStyle;rounded=0;orthogonalLoop=1;jettySize=auto;html=1;exitX=1;exitY=1;exitDx=0;exitDy=0;entryX=0;entryY=0;entryDx=0;entryDy=0;" edge="1" parent="1" source="zzOvyQntcQQUwidW1x4i-2" target="zzOvyQntcQQUwidW1x4i-16">
          <mxGeometry relative="1" as="geometry" />
        </mxCell>
        <mxCell id="zzOvyQntcQQUwidW1x4i-26" style="edgeStyle=orthogonalEdgeStyle;rounded=0;orthogonalLoop=1;jettySize=auto;html=1;exitX=1;exitY=0.75;exitDx=0;exitDy=0;entryX=0;entryY=0;entryDx=0;entryDy=0;" edge="1" parent="1" source="zzOvyQntcQQUwidW1x4i-2" target="zzOvyQntcQQUwidW1x4i-22">
          <mxGeometry relative="1" as="geometry" />
        </mxCell>
        <mxCell id="zzOvyQntcQQUwidW1x4i-2" value="&lt;font style=&quot;font-size: 26px;&quot;&gt;control-flow&lt;/font&gt;" style="rounded=1;whiteSpace=wrap;html=1;fillColor=#0050ef;fontColor=#ffffff;strokeColor=#001DBC;" vertex="1" parent="1">
          <mxGeometry x="286" y="9" width="144" height="76" as="geometry" />
        </mxCell>
        <mxCell id="zzOvyQntcQQUwidW1x4i-9" style="edgeStyle=orthogonalEdgeStyle;rounded=0;orthogonalLoop=1;jettySize=auto;html=1;exitX=0.5;exitY=1;exitDx=0;exitDy=0;entryX=0.5;entryY=0;entryDx=0;entryDy=0;" edge="1" parent="1" source="zzOvyQntcQQUwidW1x4i-3" target="zzOvyQntcQQUwidW1x4i-1">
          <mxGeometry relative="1" as="geometry" />
        </mxCell>
        <mxCell id="zzOvyQntcQQUwidW1x4i-3" value="&lt;font style=&quot;font-size: 26px;&quot;&gt;single compare&lt;/font&gt;" style="rounded=1;whiteSpace=wrap;html=1;fillColor=#0050ef;fontColor=#ffffff;strokeColor=#001DBC;" vertex="1" parent="1">
          <mxGeometry x="91" y="247" width="144" height="76" as="geometry" />
        </mxCell>
        <mxCell id="zzOvyQntcQQUwidW1x4i-8" style="edgeStyle=orthogonalEdgeStyle;rounded=0;orthogonalLoop=1;jettySize=auto;html=1;entryX=0.5;entryY=0;entryDx=0;entryDy=0;" edge="1" parent="1" source="zzOvyQntcQQUwidW1x4i-4" target="zzOvyQntcQQUwidW1x4i-3">
          <mxGeometry relative="1" as="geometry" />
        </mxCell>
        <mxCell id="zzOvyQntcQQUwidW1x4i-4" value="&lt;font style=&quot;font-size: 26px;&quot;&gt;branches-&amp;gt; additional.s&lt;/font&gt;" style="rounded=1;whiteSpace=wrap;html=1;fillColor=#0050ef;fontColor=#ffffff;strokeColor=#001DBC;" vertex="1" parent="1">
          <mxGeometry x="91" y="137" width="144" height="76" as="geometry" />
        </mxCell>
        <mxCell id="zzOvyQntcQQUwidW1x4i-13" style="edgeStyle=orthogonalEdgeStyle;rounded=0;orthogonalLoop=1;jettySize=auto;html=1;exitX=0.5;exitY=1;exitDx=0;exitDy=0;entryX=0.5;entryY=0;entryDx=0;entryDy=0;" edge="1" parent="1" source="zzOvyQntcQQUwidW1x4i-5" target="zzOvyQntcQQUwidW1x4i-12">
          <mxGeometry relative="1" as="geometry" />
        </mxCell>
        <mxCell id="zzOvyQntcQQUwidW1x4i-5" value="&lt;span style=&quot;font-size: 26px;&quot;&gt;goto-statement-&amp;gt; additional.s&lt;/span&gt;" style="rounded=1;whiteSpace=wrap;html=1;fillColor=#0050ef;fontColor=#ffffff;strokeColor=#001DBC;" vertex="1" parent="1">
          <mxGeometry x="280.5" y="137" width="155" height="95" as="geometry" />
        </mxCell>
        <mxCell id="zzOvyQntcQQUwidW1x4i-10" value="&lt;font style=&quot;font-size: 26px;&quot;&gt;multiple&lt;/font&gt;&lt;div&gt;&lt;font style=&quot;font-size: 26px;&quot;&gt;conditional statements&lt;/font&gt;&lt;/div&gt;" style="rounded=1;whiteSpace=wrap;html=1;fillColor=#0050ef;fontColor=#ffffff;strokeColor=#001DBC;" vertex="1" parent="1">
          <mxGeometry x="290" y="377" width="147" height="102" as="geometry" />
        </mxCell>
        <mxCell id="zzOvyQntcQQUwidW1x4i-11" style="edgeStyle=orthogonalEdgeStyle;rounded=0;orthogonalLoop=1;jettySize=auto;html=1;exitX=0.5;exitY=1;exitDx=0;exitDy=0;entryX=0.5;entryY=0;entryDx=0;entryDy=0;" edge="1" source="zzOvyQntcQQUwidW1x4i-12" target="zzOvyQntcQQUwidW1x4i-10" parent="1">
          <mxGeometry relative="1" as="geometry" />
        </mxCell>
        <mxCell id="zzOvyQntcQQUwidW1x4i-12" value="&lt;font style=&quot;font-size: 26px;&quot;&gt;multiple compare&lt;/font&gt;" style="rounded=1;whiteSpace=wrap;html=1;fillColor=#0050ef;fontColor=#ffffff;strokeColor=#001DBC;" vertex="1" parent="1">
          <mxGeometry x="296" y="270" width="144" height="76" as="geometry" />
        </mxCell>
        <mxCell id="zzOvyQntcQQUwidW1x4i-15" style="edgeStyle=orthogonalEdgeStyle;rounded=0;orthogonalLoop=1;jettySize=auto;html=1;exitX=0.5;exitY=1;exitDx=0;exitDy=0;entryX=0.5;entryY=0;entryDx=0;entryDy=0;" edge="1" source="zzOvyQntcQQUwidW1x4i-16" target="zzOvyQntcQQUwidW1x4i-19" parent="1">
          <mxGeometry relative="1" as="geometry" />
        </mxCell>
        <mxCell id="zzOvyQntcQQUwidW1x4i-16" value="&lt;span style=&quot;font-size: 26px;&quot;&gt;goto-statement-&amp;gt; additional.s&lt;/span&gt;" style="rounded=1;whiteSpace=wrap;html=1;fillColor=#0050ef;fontColor=#ffffff;strokeColor=#001DBC;" vertex="1" parent="1">
          <mxGeometry x="494" y="135" width="155" height="95" as="geometry" />
        </mxCell>
        <mxCell id="zzOvyQntcQQUwidW1x4i-17" value="&lt;font style=&quot;font-size: 26px;&quot;&gt;multiple&lt;/font&gt;&lt;div&gt;&lt;font style=&quot;font-size: 26px;&quot;&gt;direct non-conditional statements&lt;/font&gt;&lt;/div&gt;" style="rounded=1;whiteSpace=wrap;html=1;fillColor=#0050ef;fontColor=#ffffff;strokeColor=#001DBC;" vertex="1" parent="1">
          <mxGeometry x="494" y="379" width="157" height="119" as="geometry" />
        </mxCell>
        <mxCell id="zzOvyQntcQQUwidW1x4i-18" style="edgeStyle=orthogonalEdgeStyle;rounded=0;orthogonalLoop=1;jettySize=auto;html=1;exitX=0.5;exitY=1;exitDx=0;exitDy=0;entryX=0.5;entryY=0;entryDx=0;entryDy=0;" edge="1" source="zzOvyQntcQQUwidW1x4i-19" target="zzOvyQntcQQUwidW1x4i-17" parent="1">
          <mxGeometry relative="1" as="geometry" />
        </mxCell>
        <mxCell id="zzOvyQntcQQUwidW1x4i-19" value="&lt;font style=&quot;font-size: 26px;&quot;&gt;multiple compare&lt;/font&gt;" style="rounded=1;whiteSpace=wrap;html=1;fillColor=#0050ef;fontColor=#ffffff;strokeColor=#001DBC;" vertex="1" parent="1">
          <mxGeometry x="500" y="272" width="144" height="76" as="geometry" />
        </mxCell>
        <mxCell id="zzOvyQntcQQUwidW1x4i-21" style="edgeStyle=orthogonalEdgeStyle;rounded=0;orthogonalLoop=1;jettySize=auto;html=1;exitX=0.5;exitY=1;exitDx=0;exitDy=0;entryX=0.5;entryY=0;entryDx=0;entryDy=0;" edge="1" source="zzOvyQntcQQUwidW1x4i-22" target="zzOvyQntcQQUwidW1x4i-25" parent="1">
          <mxGeometry relative="1" as="geometry" />
        </mxCell>
        <mxCell id="zzOvyQntcQQUwidW1x4i-22" value="&lt;span style=&quot;font-size: 26px;&quot;&gt;goto-statement-&amp;gt; additional.s&lt;/span&gt;" style="rounded=1;whiteSpace=wrap;html=1;fillColor=#0050ef;fontColor=#ffffff;strokeColor=#001DBC;" vertex="1" parent="1">
          <mxGeometry x="675" y="137" width="155" height="95" as="geometry" />
        </mxCell>
        <mxCell id="zzOvyQntcQQUwidW1x4i-23" value="&lt;font style=&quot;font-size: 26px;&quot;&gt;multiple&lt;/font&gt;&lt;div&gt;&lt;font style=&quot;font-size: 26px;&quot;&gt;direct non-conditional statements&lt;/font&gt;&lt;/div&gt;" style="rounded=1;whiteSpace=wrap;html=1;fillColor=#0050ef;fontColor=#ffffff;strokeColor=#001DBC;" vertex="1" parent="1">
          <mxGeometry x="675" y="381" width="157" height="119" as="geometry" />
        </mxCell>
        <mxCell id="zzOvyQntcQQUwidW1x4i-24" style="edgeStyle=orthogonalEdgeStyle;rounded=0;orthogonalLoop=1;jettySize=auto;html=1;exitX=0.5;exitY=1;exitDx=0;exitDy=0;entryX=0.5;entryY=0;entryDx=0;entryDy=0;" edge="1" source="zzOvyQntcQQUwidW1x4i-25" target="zzOvyQntcQQUwidW1x4i-23" parent="1">
          <mxGeometry relative="1" as="geometry" />
        </mxCell>
        <mxCell id="zzOvyQntcQQUwidW1x4i-25" value="&lt;font style=&quot;font-size: 26px;&quot;&gt;single compare&lt;/font&gt;" style="rounded=1;whiteSpace=wrap;html=1;fillColor=#0050ef;fontColor=#ffffff;strokeColor=#001DBC;" vertex="1" parent="1">
          <mxGeometry x="681" y="274" width="144" height="76" as="geometry" />
        </mxCell>
      </root>
    </mxGraphModel>
  </diagram>
</mxfile>
